<?xml version="1.0" encoding="UTF-8"?>
<!DOCTYPE svg PUBLIC "-//W3C//DTD SVG 1.1//EN" "http://www.w3.org/Graphics/SVG/1.1/DTD/svg11.dtd">
<svg version="1.1" xmlns="http://www.w3.org/2000/svg" xmlns:xlink="http://www.w3.org/1999/xlink" x="0" y="0" width="3800" height="1200" viewBox="0, 0, 3800, 1200">
 
 
 
<style type="text/css" >
      
      <![CDATA[
    



        text.litentekst tspan{
          fill: #4f9dbc;
          stroke: #4f9dbc;

        }


      text.stortekst tspan{
          fill: #cedede;
          stroke: #cedede;
          fill: #444;
          stroke: #444;
          
        }


        path.midtseil {
        fill: #69b658;
          stroke: #69b658;
        }
        path.toppseil {
          fill: #85afcc;
          stroke: #85afcc;
        }

             path.bunnseil {
          fill: #003d7a;
          stroke: #003d7a;
        }
 


    svg{
      /*background-color:#cedede;
      background-color:#aaa;*/
    }
   
      ]]>
    </style>
 
 
  <g id="vektorer">
    <g>
      <path class="bunnseil"  d="M6.653,746.998 C6.653,746.998 13.679,752.148 20.17,754.145 C26.661,756.143 48.696,757.966 48.696,757.966 L155.831,757.841 C155.831,757.841 202.849,755.011 234.409,730.972 C260.543,711.067 263.76,680.401 263.76,680.401 C263.76,680.401 263.96,629.701 263.96,629.701 C263.96,629.701 263.234,615.306 245.957,598.826 C229.091,582.736 213.874,579.71 213.874,579.71 C213.874,579.71 227.218,571.821 237.445,557.941 C245.21,547.403 247.67,539.442 248.538,532.151 C249.091,527.5 248.819,500.581 248.819,500.581 C248.819,500.581 247.194,476.643 222.818,455.561 C192.566,429.397 154.095,428.643 154.095,428.643 L36.091,428.785 C36.091,428.785 25.52,428.738 16.782,431.369 C8.043,434 7.056,436.161 7.056,436.161 L82.984,490.062 L139.258,490.234 C139.258,490.234 174.021,492.991 175.246,523.312 C177.39,552.256 134.204,557.922 134.204,557.922 L82.768,557.8 L82.731,615.615 L143.9,615.492 C143.9,615.492 190.14,617.162 189.808,653.769 C189.454,692.862 142.823,698.737 142.823,698.737 L91.626,698.759 C91.626,698.759 88.715,697.965 86.518,696.002 C83.157,693.503 83.044,691.688 83.044,691.688 L82.977,490.071 L7.056,436.161" fill="#000000"/>
      <path class="bunnseil"  d="M6.653,746.998 C6.653,746.998 13.679,752.148 20.17,754.145 C26.661,756.143 48.696,757.966 48.696,757.966 L155.831,757.841 C155.831,757.841 202.849,755.011 234.409,730.972 C260.543,711.067 263.76,680.401 263.76,680.401 C263.76,680.401 263.96,629.701 263.96,629.701 C263.96,629.701 263.234,615.306 245.957,598.826 C229.091,582.736 213.874,579.71 213.874,579.71 C213.874,579.71 227.218,571.821 237.445,557.941 C245.21,547.403 247.67,539.442 248.538,532.151 C249.091,527.5 248.819,500.581 248.819,500.581 C248.819,500.581 247.194,476.643 222.818,455.561 C192.566,429.397 154.095,428.643 154.095,428.643 L36.091,428.785 C36.091,428.785 25.52,428.738 16.782,431.369 C8.043,434 7.056,436.161 7.056,436.161 L82.984,490.062 L139.258,490.234 C139.258,490.234 174.021,492.991 175.246,523.312 C177.39,552.256 134.204,557.922 134.204,557.922 L82.768,557.8 L82.731,615.615 L143.9,615.492 C143.9,615.492 190.14,617.162 189.808,653.769 C189.454,692.862 142.823,698.737 142.823,698.737 L91.626,698.759 C91.626,698.759 88.715,697.965 86.518,696.002 C83.157,693.503 83.044,691.688 83.044,691.688 L82.977,490.071 L7.056,436.161" fill-opacity="0" stroke="#000000" stroke-width="1"/>
    </g>
    <g>
      <path class="bunnseil"  d="M517.424,445.432 C517.424,445.432 458.288,411.215 373.635,428.143 C290.548,444.759 285.44,549.104 322.225,579.753 C376.845,625.263 453.898,625.797 457.843,667.949 C459.357,684.135 429.887,697.648 400.62,697.44 C348.195,697.067 317.411,672.44 317.411,672.44 L294.342,732.193 C294.342,732.193 329.097,752.337 357.098,757.466 C377.233,761.153 446.954,762.193 461.679,757.466 C476.404,752.738 533.431,731.332 533.43,659.985 C533.428,560.766 431.695,570.765 385.61,531.637 C376.236,523.678 372.553,507.022 395.569,492.81 C431.26,470.77 495.072,506.581 495.072,506.581" fill="#000000"/>
    </g>
    <path  class="bunnseil"   d="M580.675,428.143 L657.272,428.143 L656.945,757.466 L580.361,757.466 L580.675,428.143 z" fill="#000000"/>
    <g>
      <path class="bunnseil"  d="M1552.431,422.815 C1552.431,422.815 1621.341,426.013 1662.946,463.387 C1702.047,498.512 1705.361,538.939 1708.012,559.483 C1710.663,580.028 1708.963,613.821 1707.349,632.384 C1704.698,662.87 1680.231,709.625 1650.354,729.807 C1610.008,757.06 1573.648,761.043 1550.264,761.133 C1526.879,761.222 1491.803,757.966 1456.726,734.69 C1434.685,720.065 1412.656,700.963 1397.816,652.845 C1389.085,624.536 1384.449,586.408 1395.118,540.421 C1404.128,501.582 1426.569,473.322 1449.082,456.327 C1495.839,421.03 1552.431,422.815 1552.431,422.815 L1552.431,490.399 C1552.431,490.399 1525.07,489.801 1513.121,497.016 C1502.592,503.374 1494.46,510.307 1483.913,524.369 C1474.083,537.476 1467.489,568.752 1467.689,590.694 C1467.924,616.348 1468.968,634.878 1480.852,652.932 C1494.237,673.268 1514.522,693.342 1552.431,693.841 C1588.445,694.315 1602.349,674.002 1621.304,652.678 C1631.604,631.109 1633.784,622.414 1633.88,595.485 C1633.947,576.848 1629.051,541.629 1615.087,522.992 C1607.525,512.9 1597.218,501.956 1587.518,496.96 C1573.612,489.799 1552.431,490.299 1552.431,490.299" fill="#000000"/>
      <path class="bunnseil"  d="M1552.431,422.815 C1552.431,422.815 1621.341,426.013 1662.946,463.387 C1702.047,498.512 1705.361,538.939 1708.012,559.483 C1710.663,580.028 1708.963,613.821 1707.349,632.384 C1704.698,662.87 1680.231,709.625 1650.354,729.807 C1610.008,757.06 1573.648,761.043 1550.264,761.133 C1526.879,761.222 1491.803,757.966 1456.726,734.69 C1434.685,720.065 1412.656,700.963 1397.816,652.845 C1389.085,624.536 1384.449,586.408 1395.118,540.421 C1404.128,501.582 1426.569,473.322 1449.082,456.327 C1495.839,421.03 1552.431,422.815 1552.431,422.815 L1552.431,490.399 C1552.431,490.399 1525.07,489.801 1513.121,497.016 C1502.592,503.374 1494.46,510.307 1483.913,524.369 C1474.083,537.476 1467.489,568.752 1467.689,590.694 C1467.924,616.348 1468.968,634.878 1480.852,652.932 C1494.237,673.268 1514.522,693.342 1552.431,693.841 C1588.445,694.315 1602.349,674.002 1621.304,652.678 C1631.604,631.109 1633.784,622.414 1633.88,595.485 C1633.947,576.848 1629.051,541.629 1615.087,522.992 C1607.525,512.9 1597.218,501.956 1587.518,496.96 C1573.612,489.799 1552.431,490.299 1552.431,490.299" fill-opacity="0" stroke="#CA6161" stroke-width="0.5"/>
    </g>
    <g>
      <path d="M1552.431,422.296" fill="#BDA5A5"/>
      <path d="M1552.431,422.296" fill-opacity="0" stroke="#CA6161" stroke-width="0.5"/>
    </g>
    <g>
      <path  class="bunnseil"  d="M1623.1,646.989" fill="#BDA5A5"/>
      <path  class="bunnseil"  d="M1623.1,646.989" fill-opacity="0" stroke="#CA6161" stroke-width="0.5"/>
    </g>

    <g>
      <path  class="bunnseil"  d="M3040.644,424.152 C3040.644,424.152 3109.553,427.35 3151.158,464.724 C3190.26,499.849 3193.573,540.276 3196.224,560.821 C3198.875,581.366 3197.176,615.158 3195.562,633.722 C3192.911,664.208 3168.444,710.962 3138.566,731.144 C3098.22,758.398 3061.86,762.381 3038.476,762.47 C3015.092,762.56 2980.015,759.303 2944.939,736.027 C2922.898,721.402 2900.868,702.3 2886.028,654.182 C2877.298,625.873 2872.661,587.746 2883.33,541.758 C2892.341,502.92 2914.781,474.659 2937.294,457.664 C2984.052,422.368 3040.644,424.152 3040.644,424.152 L3040.644,491.736 C3040.644,491.736 3013.282,491.138 3001.333,498.354 C2990.804,504.712 2982.672,511.645 2972.126,525.707 C2962.296,538.814 2955.701,570.089 2955.902,592.031 C2956.136,617.685 2957.18,636.215 2969.064,654.27 C2982.45,674.605 3002.735,694.68 3040.644,695.178 C3076.657,695.652 3090.562,675.339 3109.516,654.016 C3119.816,632.447 3121.996,623.751 3122.093,596.822 C3122.159,578.186 3117.264,542.967 3103.299,524.33 C3095.737,514.238 3085.431,503.293 3075.73,498.297 C3061.825,491.136 3040.644,491.637 3040.644,491.637" fill="#000000"/>
      <path  class="bunnseil"  d="M3040.644,424.152 C3040.644,424.152 3109.553,427.35 3151.158,464.724 C3190.26,499.849 3193.573,540.276 3196.224,560.821 C3198.875,581.366 3197.176,615.158 3195.562,633.722 C3192.911,664.208 3168.444,710.962 3138.566,731.144 C3098.22,758.398 3061.86,762.381 3038.476,762.47 C3015.092,762.56 2980.015,759.303 2944.939,736.027 C2922.898,721.402 2900.868,702.3 2886.028,654.182 C2877.298,625.873 2872.661,587.746 2883.33,541.758 C2892.341,502.92 2914.781,474.659 2937.294,457.664 C2984.052,422.368 3040.644,424.152 3040.644,424.152 L3040.644,491.736 C3040.644,491.736 3013.282,491.138 3001.333,498.354 C2990.804,504.712 2982.672,511.645 2972.126,525.707 C2962.296,538.814 2955.701,570.089 2955.902,592.031 C2956.136,617.685 2957.18,636.215 2969.064,654.27 C2982.45,674.605 3002.735,694.68 3040.644,695.178 C3076.657,695.652 3090.562,675.339 3109.516,654.016 C3119.816,632.447 3121.996,623.751 3122.093,596.822 C3122.159,578.186 3117.264,542.967 3103.299,524.33 C3095.737,514.238 3085.431,503.293 3075.73,498.297 C3061.825,491.136 3040.644,491.637 3040.644,491.637" fill-opacity="0" stroke="#000000" stroke-width="0.5"/>
    </g>
    <g>
      <path  class="bunnseil"  d="M2490.357,445.432 C2490.357,445.432 2431.221,411.215 2346.569,428.143 C2263.481,444.759 2258.373,549.104 2295.158,579.753 C2349.778,625.263 2426.832,625.797 2430.776,667.949 C2432.29,684.135 2402.82,697.648 2373.553,697.44 C2321.128,697.067 2290.344,672.44 2290.344,672.44 L2267.275,732.193 C2267.275,732.193 2302.03,752.337 2330.031,757.466 C2350.166,761.153 2419.887,762.193 2434.612,757.466 C2449.337,752.738 2506.364,731.332 2506.363,659.985 C2506.362,560.766 2404.628,570.765 2358.543,531.637 C2349.169,523.678 2345.486,507.022 2368.502,492.81 C2404.193,470.771 2468.005,506.581 2468.005,506.581" fill="#000000"/>
    </g>
    <g>
      <path  class="bunnseil"  d="M1763.203,432.89 L1762.778,755.379 L1841.812,755.251 L1841.881,623.429 L1967.191,623.251 L1967.051,558.597 L1841.523,558.877 L1841.663,494.364 L1984.124,494.084 L1984.544,433.069 L1763.169,432.924" fill="#000000"/>
      <path  class="bunnseil"  d="M1763.203,432.89 L1762.778,755.379 L1841.812,755.251 L1841.881,623.429 L1967.191,623.251 L1967.051,558.597 L1841.523,558.877 L1841.663,494.364 L1984.124,494.084 L1984.544,433.069 L1763.169,432.924" fill-opacity="0" stroke="#000000" stroke-width="1"/>
    </g>
    <g>
      <path  class="bunnseil"  d="M2026.33,432.89 L2025.905,755.379 L2104.939,755.251 L2105.008,623.429 L2230.318,623.251 L2230.178,558.597 L2104.65,558.877 L2104.79,494.364 L2247.251,494.084 L2247.671,433.069 L2026.295,432.924" fill="#000000"/>
      <path  class="bunnseil"  d="M2026.33,432.89 L2025.905,755.379 L2104.939,755.251 L2105.008,623.429 L2230.318,623.251 L2230.178,558.597 L2104.65,558.877 L2104.79,494.364 L2247.251,494.084 L2247.671,433.069 L2026.295,432.924" fill-opacity="0" stroke="#000000" stroke-width="1"/>
    </g>
    <g>
      <path  class="bunnseil"  d="M2555.93,432.89 L2630.785,432.89 L2630.625,556.091 L2747.606,555.93 L2747.285,432.89 L2825.058,432.89 L2824.898,755.379 L2747.285,755.379 L2747.285,617.474 L2630.946,617.795 L2630.785,755.379 L2555.93,755.379 L2555.93,432.89 z" fill="#000000"/>
      <path  class="bunnseil"  d="M2555.93,432.89 L2630.785,432.89 L2630.625,556.091 L2747.606,555.93 L2747.285,432.89 L2825.058,432.89 L2824.898,755.379 L2747.285,755.379 L2747.285,617.474 L2630.946,617.795 L2630.785,755.379 L2555.93,755.379 L2555.93,432.89 z" fill-opacity="0" stroke="#000000" stroke-width="1"/>
    </g>
    <g>
      <path  class="bunnseil"  d="M3517.427,755.379 C3517.427,755.379 3498.041,713.133 3479.666,681.528 C3461.291,649.923 3439.374,624.149 3439.374,624.149 C3439.374,624.149 3474.456,603.327 3484.683,589.447 C3492.448,578.91 3495.34,568.867 3496.075,537.997 C3496.187,533.314 3495.023,501.411 3495.023,501.411 C3495.023,501.411 3493.398,477.473 3469.022,456.391 C3438.77,430.227 3400.299,429.473 3400.299,429.473 L3282.295,429.615 C3282.295,429.615 3271.724,429.568 3262.986,432.199 C3254.247,434.83 3252.553,437.057 3252.553,437.057 L3252.396,755.379 L3325.282,755.379 L3326.073,494.444 L3386.065,493.422 C3386.065,493.422 3422.637,496.235 3421.67,536.623 C3420.766,574.38 3379.624,578.046 3379.624,578.046 L3325.489,578.192 L3324.926,637.831 L3363.523,638.624 C3363.523,638.624 3378.475,657.068 3390.235,675.443 C3411.309,708.371 3433.6,755.379 3433.6,755.379" fill="#000000"/>
      <path  class="bunnseil"  d="M3517.427,755.379 C3517.427,755.379 3498.041,713.133 3479.666,681.528 C3461.291,649.923 3439.374,624.149 3439.374,624.149 C3439.374,624.149 3474.456,603.327 3484.683,589.447 C3492.448,578.91 3495.34,568.867 3496.075,537.997 C3496.187,533.314 3495.023,501.411 3495.023,501.411 C3495.023,501.411 3493.398,477.473 3469.022,456.391 C3438.77,430.227 3400.299,429.473 3400.299,429.473 L3282.295,429.615 C3282.295,429.615 3271.724,429.568 3262.986,432.199 C3254.247,434.83 3252.553,437.057 3252.553,437.057 L3252.396,755.379 L3325.282,755.379 L3326.073,494.444 L3386.065,493.422 C3386.065,493.422 3422.637,496.235 3421.67,536.623 C3420.766,574.38 3379.624,578.046 3379.624,578.046 L3325.489,578.192 L3324.926,637.831 L3363.523,638.624 C3363.523,638.624 3378.475,657.068 3390.235,675.443 C3411.309,708.371 3433.6,755.379 3433.6,755.379" fill-opacity="0" stroke="#000000" stroke-width="1"/>
    </g>
    <g>
      <path  class="bunnseil"  d="M3558.083,431.136 L3778.509,430.815 L3778.803,494.105 L3633.408,494.367 L3632.738,554.951 L3761.173,555.16 L3760.893,615.814 L3633.581,615.639 L3633.97,689.805 L3787.829,688.97 L3788.672,755.379 L3557.714,755.379 L3558.083,431.136 z" fill="#000000"/>
      <path  class="bunnseil"  d="M3558.083,431.136 L3778.509,430.815 L3778.803,494.105 L3633.408,494.367 L3632.738,554.951 L3761.173,555.16 L3760.893,615.814 L3633.581,615.639 L3633.97,689.805 L3787.829,688.97 L3788.672,755.379 L3557.714,755.379 L3558.083,431.136 z" fill-opacity="0" stroke="#000000" stroke-width="1"/>
    </g>
    <g>
      <path  class="toppseil"  d="M756.391,202.031 C756.391,202.031 825.019,175.424 903.224,119.887 C1021.714,35.742 1042.941,2.871 1042.941,2.871 C1042.941,2.871 1073.041,29.347 1108.202,75.408 C1141.261,118.715 1157.761,146.547 1157.761,146.547 C1157.761,146.547 1084.57,252.496 1004.098,329.001 C923.625,405.506 853.17,440.791 853.17,440.791 C853.17,440.791 842.705,386.414 817.085,316.534 C791.465,246.653 756.391,202.031 756.391,202.031 z" fill="#5546AC"/>
      <path  class="toppseil"  d="M756.391,202.031 C756.391,202.031 825.019,175.424 903.224,119.887 C1021.714,35.742 1042.941,2.871 1042.941,2.871 C1042.941,2.871 1073.041,29.347 1108.202,75.408 C1141.261,118.715 1157.761,146.547 1157.761,146.547 C1157.761,146.547 1084.57,252.496 1004.098,329.001 C923.625,405.506 853.17,440.791 853.17,440.791 C853.17,440.791 842.705,386.414 817.085,316.534 C791.465,246.653 756.391,202.031 756.391,202.031 z" fill-opacity="0" stroke="#FFFFFF" stroke-width="1"/>
    </g>
    <g>
      <path  class="midtseil" d="M858.196,461.402 C858.196,461.402 958.945,402.78 1043.656,323.282 C1125.214,246.742 1172.093,167.75 1172.093,167.75 C1172.093,167.75 1174.604,167.767 1193.598,206.591 C1212.592,245.414 1229.547,298.525 1229.547,298.525 C1229.547,298.525 1190.799,425.54 1099.936,540.073 C1007.621,656.436 855.642,753.23 855.642,753.23 C855.642,753.23 873.163,664.984 872.671,586.215 C872.102,495.109 858.196,461.402 858.196,461.402 z" fill="#4E4B5D"/>
      <path class="midtseil" d="M858.196,461.402 C858.196,461.402 958.945,402.78 1043.656,323.282 C1125.214,246.742 1172.093,167.75 1172.093,167.75 C1172.093,167.75 1174.604,167.767 1193.598,206.591 C1212.592,245.414 1229.547,298.525 1229.547,298.525 C1229.547,298.525 1190.799,425.54 1099.936,540.073 C1007.621,656.436 855.642,753.23 855.642,753.23 C855.642,753.23 873.163,664.984 872.671,586.215 C872.102,495.109 858.196,461.402 858.196,461.402 z" fill-opacity="0" stroke="#FFFFFF" stroke-width="1"/>
    </g>
    <g>
      <path class="bunnseil" d="M845.606,787.891 C845.606,787.891 932.741,740.427 1065.496,614.522 C1198.25,488.616 1238.527,349.639 1238.527,349.639 C1238.527,349.639 1292.319,631.297 1118.166,838.904 C1059.934,908.322 1021.435,954.338 912.234,1035.141 C754.833,1151.611 593.394,1192.725 593.394,1192.725 C593.394,1192.725 709.517,1092.795 762.178,994.833 C843.939,842.737 845.606,787.891 845.606,787.891 z" fill="#000000"/>
      <path class="bunnseil" d="M845.606,787.891 C845.606,787.891 932.741,740.427 1065.496,614.522 C1198.25,488.616 1238.527,349.639 1238.527,349.639 C1238.527,349.639 1292.319,631.297 1118.166,838.904 C1059.934,908.322 1021.435,954.338 912.234,1035.141 C754.833,1151.611 593.394,1192.725 593.394,1192.725 C593.394,1192.725 709.517,1092.795 762.178,994.833 C843.939,842.737 845.606,787.891 845.606,787.891 z" fill-opacity="0" stroke="#FFFFFF" stroke-width="1"/>
    </g>
    <g>
      <path  class="midtseil"   d="M10.998,856.078 L662.117,856.078 L662.117,878.105 L10.998,878.105 L10.998,856.078 z" fill="#4E4B5D"/>
      <path  class="midtseil"  d="M10.998,856.078 L662.117,856.078 L662.117,878.105 L10.998,878.105 L10.998,856.078 z" fill-opacity="0" stroke="#4E4B5D" stroke-width="1"/>
    </g>
    <g>
      <path  class="midtseil"  d="M1291.004,856.078 L3788.672,856.078 L3788.672,878.105 L1291.004,878.105 L1291.004,856.078 z" fill="#4E4B5D"/>
      <path  class="midtseil"  d="M1291.004,856.078 L3788.672,856.078 L3788.672,878.105 L1291.004,878.105 L1291.004,856.078 z" fill-opacity="0" stroke="#4E4B5D" stroke-width="1"/>
    </g>
    <g> 
      <path   class="bunnseil" d="M1412.869,1089.93 L1417.254,1020.523 L1442.63,1077.392 L1454.5,1077.255 L1480.467,1023.695 L1484.772,1090.08 L1500.632,1090.08 L1493.608,993.561 L1477.975,993.335 L1447.615,1052.243 L1419.52,993.108 L1403.887,993.335 L1396.863,1090.08 L1412.741,1090.057" fill="#000000"/>
      <path class="bunnseil" d="M1412.869,1089.93 L1417.254,1020.523 L1442.63,1077.392 L1454.5,1077.255 L1480.467,1023.695 L1484.772,1090.08 L1500.632,1090.08 L1493.608,993.561 L1477.975,993.335 L1447.615,1052.243 L1419.52,993.108 L1403.887,993.335 L1396.863,1090.08 L1412.741,1090.057" fill-opacity="0" stroke="#000000" stroke-width="1"/>
    </g>
    <g>
      <path class="bunnseil" d="M1938.142,1089.93 L1942.527,1020.523 L1967.903,1077.392 L1979.773,1077.255 L2005.74,1023.695 L2010.045,1090.08 L2025.905,1090.08 L2018.881,993.561 L2003.248,993.335 L1972.887,1052.243 L1944.793,993.108 L1929.159,993.335 L1922.136,1090.08 L1938.014,1090.057" fill="#000000"/>
      <path class="bunnseil" d="M1938.142,1089.93 L1942.527,1020.523 L1967.903,1077.392 L1979.773,1077.255 L2005.74,1023.695 L2010.045,1090.08 L2025.905,1090.08 L2018.881,993.561 L2003.248,993.335 L1972.887,1052.243 L1944.793,993.108 L1929.159,993.335 L1922.136,1090.08 L1938.014,1090.057" fill-opacity="0" stroke="#000000" stroke-width="1"/>
    </g>
    <g>
      <path class="bunnseil" d="M1558.988,993.108 L1520.491,1090.011 L1537.53,1090.08 L1548.475,1063.929 L1585.816,1064.054 L1581.749,1051.355 L1552.431,1051.418 L1566.687,1014.361 L1581.449,1050.756 L1594.753,1090.14 L1613.661,1090.08 L1575.364,993.108 L1558.851,993.108" fill="#000000"/>
      <path class="bunnseil" d="M1558.988,993.108 L1520.491,1090.011 L1537.53,1090.08 L1548.475,1063.929 L1585.816,1064.054 L1581.749,1051.355 L1552.431,1051.418 L1566.687,1014.361 L1581.449,1050.756 L1594.753,1090.14 L1613.661,1090.08 L1575.364,993.108 L1558.851,993.108" fill-opacity="0" stroke="#000000" stroke-width="1"/>
    </g>
    <g>
      <path class="bunnseil" d="M1635.148,993.108 L1635.158,1090.08 L1651.372,1090.08 L1651.372,1051.495 L1667.459,1051.735 C1667.459,1051.735 1676.029,1061.87 1681.538,1069.611 C1687.047,1077.353 1691.813,1090.08 1691.813,1090.08 L1710.809,1090.08 C1710.809,1090.08 1709.361,1084.355 1699.566,1067.908 C1689.771,1051.46 1684.803,1049.596 1684.803,1049.596 C1684.803,1049.596 1693.432,1045.747 1696.727,1042.072 C1702.347,1035.804 1703.178,1026.287 1703.178,1026.287 L1703.379,1017.243 C1703.379,1017.243 1702.973,1006.3 1695.466,999.374 C1687.926,992.957 1683.289,993.108 1683.289,993.108 L1651.386,993.108 L1651.386,1005.949 L1673.264,1006.141 C1673.264,1006.141 1682.482,1007.676 1684.945,1015.527 C1687.216,1022.767 1686.719,1024.819 1684.263,1029.816 C1680.84,1036.782 1673.419,1038.66 1673.419,1038.66 L1651.455,1038.582 L1651.386,993.108 L1634.825,993.108" fill="#000000"/>
      <path class="bunnseil" d="M1635.148,993.108 L1635.158,1090.08 L1651.372,1090.08 L1651.372,1051.495 L1667.459,1051.735 C1667.459,1051.735 1676.029,1061.87 1681.538,1069.611 C1687.047,1077.353 1691.813,1090.08 1691.813,1090.08 L1710.809,1090.08 C1710.809,1090.08 1709.361,1084.355 1699.566,1067.908 C1689.771,1051.46 1684.803,1049.596 1684.803,1049.596 C1684.803,1049.596 1693.432,1045.747 1696.727,1042.072 C1702.347,1035.804 1703.178,1026.287 1703.178,1026.287 L1703.379,1017.243 C1703.379,1017.243 1702.973,1006.3 1695.466,999.374 C1687.926,992.957 1683.289,993.108 1683.289,993.108 L1651.386,993.108 L1651.386,1005.949 L1673.264,1006.141 C1673.264,1006.141 1682.482,1007.676 1684.945,1015.527 C1687.216,1022.767 1686.719,1024.819 1684.263,1029.816 C1680.84,1036.782 1673.419,1038.66 1673.419,1038.66 L1651.455,1038.582 L1651.386,993.108 L1634.825,993.108" fill-opacity="0" stroke="#000000" stroke-width="1"/>
    </g>
    <g>
      <path class="bunnseil"  d="M2543.106,993.108 L2543.116,1090.08 L2559.331,1090.08 L2559.331,1051.495 L2575.417,1051.735 C2575.417,1051.735 2583.987,1061.87 2589.496,1069.611 C2595.006,1077.353 2599.771,1090.08 2599.771,1090.08 L2618.767,1090.08 C2618.767,1090.08 2617.319,1084.355 2607.524,1067.908 C2597.73,1051.46 2592.761,1049.596 2592.761,1049.596 C2592.761,1049.596 2601.391,1045.747 2604.685,1042.072 C2610.305,1035.804 2611.136,1026.287 2611.136,1026.287 L2611.337,1017.243 C2611.337,1017.243 2610.931,1006.3 2603.425,999.374 C2595.884,992.957 2591.248,993.108 2591.248,993.108 L2559.344,993.108 L2559.344,1005.949 L2581.222,1006.141 C2581.222,1006.141 2590.44,1007.676 2592.903,1015.527 C2595.174,1022.767 2594.677,1024.819 2592.222,1029.816 C2588.798,1036.782 2581.377,1038.66 2581.377,1038.66 L2559.414,1038.582 L2559.344,993.108 L2542.783,993.108" fill="#000000"/>
      <path class="bunnseil" d="M2543.106,993.108 L2543.116,1090.08 L2559.331,1090.08 L2559.331,1051.495 L2575.417,1051.735 C2575.417,1051.735 2583.987,1061.87 2589.496,1069.611 C2595.006,1077.353 2599.771,1090.08 2599.771,1090.08 L2618.767,1090.08 C2618.767,1090.08 2617.319,1084.355 2607.524,1067.908 C2597.73,1051.46 2592.761,1049.596 2592.761,1049.596 C2592.761,1049.596 2601.391,1045.747 2604.685,1042.072 C2610.305,1035.804 2611.136,1026.287 2611.136,1026.287 L2611.337,1017.243 C2611.337,1017.243 2610.931,1006.3 2603.425,999.374 C2595.884,992.957 2591.248,993.108 2591.248,993.108 L2559.344,993.108 L2559.344,1005.949 L2581.222,1006.141 C2581.222,1006.141 2590.44,1007.676 2592.903,1015.527 C2595.174,1022.767 2594.677,1024.819 2592.222,1029.816 C2588.798,1036.782 2581.377,1038.66 2581.377,1038.66 L2559.414,1038.582 L2559.344,993.108 L2542.783,993.108" fill-opacity="0" stroke="#000000" stroke-width="1"/>
    </g>
    <g>
      <path class="bunnseil" d="M2810.172,993.138 L2810.182,1090.11 L2826.397,1090.11 L2826.397,1051.525 L2842.484,1051.765 C2842.484,1051.765 2851.053,1061.9 2856.562,1069.641 C2862.072,1077.383 2866.838,1090.11 2866.838,1090.11 L2885.833,1090.11 C2885.833,1090.11 2884.385,1084.385 2874.591,1067.938 C2864.796,1051.49 2859.827,1049.626 2859.827,1049.626 C2859.827,1049.626 2868.457,1045.777 2871.751,1042.102 C2877.371,1035.834 2878.202,1026.318 2878.202,1026.318 L2878.403,1017.273 C2878.403,1017.273 2877.997,1006.33 2870.491,999.404 C2862.95,992.987 2858.314,993.138 2858.314,993.138 L2826.41,993.138 L2826.41,1005.98 L2848.289,1006.171 C2848.289,1006.171 2857.506,1007.706 2859.969,1015.557 C2862.24,1022.797 2861.744,1024.849 2859.288,1029.846 C2855.865,1036.812 2848.444,1038.69 2848.444,1038.69 L2826.48,1038.612 L2826.41,993.138 L2809.85,993.138" fill="#000000"/>
      <path class="bunnseil" d="M2810.172,993.138 L2810.182,1090.11 L2826.397,1090.11 L2826.397,1051.525 L2842.484,1051.765 C2842.484,1051.765 2851.053,1061.9 2856.562,1069.641 C2862.072,1077.383 2866.838,1090.11 2866.838,1090.11 L2885.833,1090.11 C2885.833,1090.11 2884.385,1084.385 2874.591,1067.938 C2864.796,1051.49 2859.827,1049.626 2859.827,1049.626 C2859.827,1049.626 2868.457,1045.777 2871.751,1042.102 C2877.371,1035.834 2878.202,1026.318 2878.202,1026.318 L2878.403,1017.273 C2878.403,1017.273 2877.997,1006.33 2870.491,999.404 C2862.95,992.987 2858.314,993.138 2858.314,993.138 L2826.41,993.138 L2826.41,1005.98 L2848.289,1006.171 C2848.289,1006.171 2857.506,1007.706 2859.969,1015.557 C2862.24,1022.797 2861.744,1024.849 2859.288,1029.846 C2855.865,1036.812 2848.444,1038.69 2848.444,1038.69 L2826.48,1038.612 L2826.41,993.138 L2809.85,993.138" fill-opacity="0" stroke="#000000" stroke-width="1"/>
    </g>
    <g>
      <path class="bunnseil" d="M1734.711,993.108 L1751.616,993.108 L1751.616,1090.08 L1734.711,1090.08 L1734.711,993.108 z" fill="#000000"/>
      <path class="bunnseil" d="M1734.711,993.108 L1751.616,993.108 L1751.616,1090.08 L1734.711,1090.08 L1734.711,993.108 z" fill-opacity="0" stroke="#000000" stroke-width="1"/>
    </g>
    <g>
      <path class="bunnseil" d="M1876.88,993.108 L1893.785,993.108 L1893.785,1090.08 L1876.88,1090.08 L1876.88,993.108 z" fill="#000000"/>
      <path class="bunnseil" d="M1876.88,993.108 L1893.785,993.108 L1893.785,1090.08 L1876.88,1090.08 L1876.88,993.108 z" fill-opacity="0" stroke="#000000" stroke-width="1"/>
    </g>
    <g>
      <path class="bunnseil" d="M2193.27,993.138 L2210.175,993.138 L2210.175,1090.11 L2193.27,1090.11 L2193.27,993.138 z" fill="#000000"/>
      <path class="bunnseil" d="M2193.27,993.138 L2210.175,993.138 L2210.175,1090.11 L2193.27,1090.11 L2193.27,993.138 z" fill-opacity="0" stroke="#000000" stroke-width="1"/>
    </g>
    <g>
      <path class="bunnseil" d="M2641.903,993.108 L2658.808,993.108 L2658.808,1090.08 L2641.903,1090.08 L2641.903,993.108 z" fill="#000000"/>
      <path class="bunnseil" d="M2641.903,993.108 L2658.808,993.108 L2658.808,1090.08 L2641.903,1090.08 L2641.903,993.108 z" fill-opacity="0" stroke="#000000" stroke-width="1"/>
    </g>
    <g>
      <path  class="bunnseil" d="M3441.633,993.108 L3458.538,993.108 L3458.538,1090.08 L3441.633,1090.08 L3441.633,993.108 z" fill="#000000"/>
      <path class="bunnseil" d="M3441.633,993.108 L3458.538,993.108 L3458.538,1090.08 L3441.633,1090.08 L3441.633,993.108 z" fill-opacity="0" stroke="#000000" stroke-width="1"/>
    </g>
    <g>
      <path class="bunnseil" d="M1777.082,993.108 L1850.78,993.108 L1850.772,1006.112 L1822.268,1006.112 L1822.389,1090.08 L1806.554,1090.14 L1806.61,1006.096 L1777.103,1006.014 L1777.082,993.108 z" fill="#000000"/>
      <path class="bunnseil" d="M1777.082,993.108 L1850.78,993.108 L1850.772,1006.112 L1822.268,1006.112 L1822.389,1090.08 L1806.554,1090.14 L1806.61,1006.096 L1777.103,1006.014 L1777.082,993.108 z" fill-opacity="0" stroke="#000000" stroke-width="1"/>
    </g>
    <g>
      <path class="bunnseil" d="M2350.47,993.108 L2424.168,993.108 L2424.16,1006.112 L2395.656,1006.112 L2395.777,1090.08 L2379.943,1090.14 L2379.998,1006.096 L2350.491,1006.014 L2350.47,993.108 z" fill="#000000"/>
      <path class="bunnseil" d="M2350.47,993.108 L2424.168,993.108 L2424.16,1006.112 L2395.656,1006.112 L2395.777,1090.08 L2379.943,1090.14 L2379.998,1006.096 L2350.491,1006.014 L2350.47,993.108 z" fill-opacity="0" stroke="#000000" stroke-width="1"/>
    </g>
    <g>
      <path class="bunnseil" d="M3343.391,993.078 L3417.088,993.078 L3417.08,1006.082 L3388.577,1006.082 L3388.698,1090.05 L3372.863,1090.11 L3372.918,1006.066 L3343.411,1005.984 L3343.391,993.078 z" fill="#000000"/>
      <path class="bunnseil" d="M3343.391,993.078 L3417.088,993.078 L3417.08,1006.082 L3388.577,1006.082 L3388.698,1090.05 L3372.863,1090.11 L3372.918,1006.066 L3343.411,1005.984 L3343.391,993.078 z" fill-opacity="0" stroke="#000000" stroke-width="1"/>
    </g>
    <g>
      <path class="bunnseil" d="M2060.858,993.138 L2119.073,993.138 L2118.938,1005.872 L2077.036,1005.885 L2077.036,1031.626 L2115.544,1031.626 L2115.614,1044.671 L2076.408,1044.576 L2076.303,1074.071 L2121.542,1074.281 L2121.626,1090.08 L2060.858,1090.08 L2060.858,993.138 z" fill="#000000"/>
      <path class="bunnseil" d="M2060.858,993.138 L2119.073,993.138 L2118.938,1005.872 L2077.036,1005.885 L2077.036,1031.626 L2115.544,1031.626 L2115.614,1044.671 L2076.408,1044.576 L2076.303,1074.071 L2121.542,1074.281 L2121.626,1090.08 L2060.858,1090.08 L2060.858,993.138 z" fill-opacity="0" stroke="#000000" stroke-width="1"/>
    </g>
    <g>
      <path class="bunnseil" d="M2450.543,993.123 L2508.757,993.123 L2508.623,1005.857 L2466.721,1005.87 L2466.721,1031.611 L2505.228,1031.611 L2505.298,1044.656 L2466.092,1044.561 L2465.987,1074.056 L2511.227,1074.266 L2511.311,1090.065 L2450.543,1090.065 L2450.543,993.123 z" fill="#000000"/>
      <path class="bunnseil" d="M2450.543,993.123 L2508.757,993.123 L2508.623,1005.857 L2466.721,1005.87 L2466.721,1031.611 L2505.228,1031.611 L2505.298,1044.656 L2466.092,1044.561 L2465.987,1074.056 L2511.227,1074.266 L2511.311,1090.065 L2450.543,1090.065 L2450.543,993.123 z" fill-opacity="0" stroke="#000000" stroke-width="1"/>
    </g>
    <g>
      <path class="bunnseil" d="M2247.671,993.078 L2262.595,993.138 L2308.935,1054.754 L2309.275,993.078 L2324.345,993.078 L2324.345,1090.14 L2310.463,1090.065 L2264.462,1019.786 L2264.462,1090.14 L2247.671,1090.14 L2247.671,993.078 z" fill="#000000"/>
      <path class="bunnseil" d="M2247.671,993.078 L2262.595,993.138 L2308.935,1054.754 L2309.275,993.078 L2324.345,993.078 L2324.345,1090.14 L2310.463,1090.065 L2264.462,1019.786 L2264.462,1090.14 L2247.671,1090.14 L2247.671,993.078 z" fill-opacity="0" stroke="#000000" stroke-width="1"/>
    </g>
    <g>
      <path class="bunnseil" d="M3612.964,993.093 L3627.889,993.153 L3674.229,1054.769 L3674.568,993.093 L3689.639,993.093 L3689.639,1090.155 L3675.757,1090.08 L3629.756,1019.801 L3629.756,1090.155 L3612.964,1090.155 L3612.964,993.093 z" fill="#000000"/>
      <path class="bunnseil" d="M3612.964,993.093 L3627.889,993.153 L3674.229,1054.769 L3674.568,993.093 L3689.639,993.093 L3689.639,1090.155 L3675.757,1090.08 L3629.756,1019.801 L3629.756,1090.155 L3612.964,1090.155 L3612.964,993.093 z" fill-opacity="0" stroke="#000000" stroke-width="1"/>
    </g>
    <g>
      <path class="bunnseil" d="M2727.717,990.128 L2729.75,1005.549 C2729.75,1005.549 2739.957,1005.589 2739.957,1005.589 C2739.957,1005.589 2746.502,1005.022 2756.415,1016.048 C2763.816,1024.279 2764.803,1054.597 2756.081,1065.816 C2746.75,1077.819 2742.462,1077.001 2742.462,1077.001 L2730.443,1076.999 C2730.443,1076.999 2723.297,1076.037 2714.093,1065.941 C2704.182,1055.07 2707.873,1022.677 2712.86,1016.729 C2722.059,1005.759 2729.855,1005.549 2729.855,1005.549 L2727.598,990.05 C2727.598,990.05 2716.546,989.779 2704.043,1001.364 C2684.551,1019.424 2684.012,1060.041 2703.798,1080.312 C2714.283,1091.054 2727.82,1091.814 2727.82,1091.814 L2744.615,1091.74 C2744.615,1091.74 2759.618,1089.278 2767.955,1079.964 C2780.939,1065.457 2788.107,1027.851 2767.955,1003.919 C2757.154,991.093 2739.255,989.692 2739.255,989.692 L2727.845,989.803" fill="#000000"/>
      <path class="bunnseil" d="M2727.717,990.128 L2729.75,1005.549 C2729.75,1005.549 2739.957,1005.589 2739.957,1005.589 C2739.957,1005.589 2746.502,1005.022 2756.415,1016.048 C2763.816,1024.279 2764.803,1054.597 2756.081,1065.816 C2746.75,1077.819 2742.462,1077.001 2742.462,1077.001 L2730.443,1076.999 C2730.443,1076.999 2723.297,1076.037 2714.093,1065.941 C2704.182,1055.07 2707.873,1022.677 2712.86,1016.729 C2722.059,1005.759 2729.855,1005.549 2729.855,1005.549 L2727.598,990.05 C2727.598,990.05 2716.546,989.779 2704.043,1001.364 C2684.551,1019.424 2684.012,1060.041 2703.798,1080.312 C2714.283,1091.054 2727.82,1091.814 2727.82,1091.814 L2744.615,1091.74 C2744.615,1091.74 2759.618,1089.278 2767.955,1079.964 C2780.939,1065.457 2788.107,1027.851 2767.955,1003.919 C2757.154,991.093 2739.255,989.692 2739.255,989.692 L2727.845,989.803" fill-opacity="0" stroke="#000000" stroke-width="1"/>
    </g>
    <g>
      <path class="bunnseil" d="M3079.263,990.969 L3081.297,1006.39 C3081.297,1006.39 3091.504,1006.43 3091.504,1006.43 C3091.504,1006.43 3098.048,1005.863 3107.962,1016.889 C3115.362,1025.12 3116.349,1055.438 3107.628,1066.657 C3098.297,1078.66 3094.009,1077.843 3094.009,1077.843 L3081.99,1077.84 C3081.99,1077.84 3074.843,1076.878 3065.64,1066.782 C3055.729,1055.911 3059.419,1023.518 3064.407,1017.57 C3073.606,1006.6 3081.402,1006.39 3081.402,1006.39 L3079.145,990.891 C3079.145,990.891 3068.093,990.62 3055.589,1002.205 C3036.098,1020.265 3035.559,1060.882 3055.344,1081.153 C3065.83,1091.895 3079.367,1092.655 3079.367,1092.655 L3096.162,1092.581 C3096.162,1092.581 3111.165,1090.119 3119.502,1080.805 C3132.486,1066.298 3139.654,1028.692 3119.502,1004.76 C3108.701,991.934 3090.801,990.533 3090.801,990.533 L3079.392,990.644" fill="#000000"/>
      <path class="bunnseil" d="M3079.263,990.969 L3081.297,1006.39 C3081.297,1006.39 3091.504,1006.43 3091.504,1006.43 C3091.504,1006.43 3098.048,1005.863 3107.962,1016.889 C3115.362,1025.12 3116.349,1055.438 3107.628,1066.657 C3098.297,1078.66 3094.009,1077.843 3094.009,1077.843 L3081.99,1077.84 C3081.99,1077.84 3074.843,1076.878 3065.64,1066.782 C3055.729,1055.911 3059.419,1023.518 3064.407,1017.57 C3073.606,1006.6 3081.402,1006.39 3081.402,1006.39 L3079.145,990.891 C3079.145,990.891 3068.093,990.62 3055.589,1002.205 C3036.098,1020.265 3035.559,1060.882 3055.344,1081.153 C3065.83,1091.895 3079.367,1092.655 3079.367,1092.655 L3096.162,1092.581 C3096.162,1092.581 3111.165,1090.119 3119.502,1080.805 C3132.486,1066.298 3139.654,1028.692 3119.502,1004.76 C3108.701,991.934 3090.801,990.533 3090.801,990.533 L3079.392,990.644" fill-opacity="0" stroke="#000000" stroke-width="1"/>
    </g>
    <g>
      <path class="bunnseil" d="M3528.972,990.969 L3531.005,1006.39 C3531.005,1006.39 3541.212,1006.43 3541.212,1006.43 C3541.212,1006.43 3547.757,1005.863 3557.67,1016.889 C3565.071,1025.12 3566.058,1055.438 3557.336,1066.657 C3548.005,1078.66 3543.717,1077.843 3543.717,1077.843 L3531.699,1077.84 C3531.699,1077.84 3524.552,1076.878 3515.348,1066.782 C3505.438,1055.911 3509.128,1023.518 3514.115,1017.57 C3523.314,1006.6 3531.11,1006.39 3531.11,1006.39 L3528.853,990.891 C3528.853,990.891 3517.801,990.62 3505.298,1002.205 C3485.806,1020.265 3485.267,1060.882 3505.053,1081.153 C3515.539,1091.895 3529.076,1092.655 3529.076,1092.655 L3545.87,1092.581 C3545.87,1092.581 3560.874,1090.119 3569.21,1080.805 C3582.194,1066.298 3589.362,1028.692 3569.21,1004.76 C3558.409,991.934 3540.51,990.533 3540.51,990.533 L3529.101,990.644" fill="#000000"/>
      <path class="bunnseil" d="M3528.972,990.969 L3531.005,1006.39 C3531.005,1006.39 3541.212,1006.43 3541.212,1006.43 C3541.212,1006.43 3547.757,1005.863 3557.67,1016.889 C3565.071,1025.12 3566.058,1055.438 3557.336,1066.657 C3548.005,1078.66 3543.717,1077.843 3543.717,1077.843 L3531.699,1077.84 C3531.699,1077.84 3524.552,1076.878 3515.348,1066.782 C3505.438,1055.911 3509.128,1023.518 3514.115,1017.57 C3523.314,1006.6 3531.11,1006.39 3531.11,1006.39 L3528.853,990.891 C3528.853,990.891 3517.801,990.62 3505.298,1002.205 C3485.806,1020.265 3485.267,1060.882 3505.053,1081.153 C3515.539,1091.895 3529.076,1092.655 3529.076,1092.655 L3545.87,1092.581 C3545.87,1092.581 3560.874,1090.119 3569.21,1080.805 C3582.194,1066.298 3589.362,1028.692 3569.21,1004.76 C3558.409,991.934 3540.51,990.533 3540.51,990.533 L3529.101,990.644" fill-opacity="0" stroke="#000000" stroke-width="1"/>
    </g>
    <g>
      <path class="bunnseil" d="M3008.433,1011.623 L3015.876,996.06 C2993.261,989.692 2979.202,989.692 2968.435,993.078 C2957.833,996.412 2944.527,1018.06 2956.745,1032.147 C2968.962,1046.234 2981.355,1047.528 2981.355,1047.528 C2981.355,1047.528 3003.913,1052.997 2998.275,1067.524 C2992.636,1082.051 2975.818,1077.06 2975.818,1077.06 L2953.602,1071.31 L2949.836,1086.845 C2949.836,1086.845 2973.277,1093.059 2986.67,1091.814 C3000.062,1090.569 3014.886,1086.904 3017.347,1065.986 C3019.406,1048.488 3008.94,1041.842 3003.971,1038.829 C2999.001,1035.817 2966.775,1028.582 2968.748,1016.744 C2972.162,996.262 3008.32,1011.736 3008.32,1011.736" fill="#000000"/>
      <path class="bunnseil" d="M3008.433,1011.623 L3015.876,996.06 C2993.261,989.692 2979.202,989.692 2968.435,993.078 C2957.833,996.412 2944.527,1018.06 2956.745,1032.147 C2968.962,1046.234 2981.355,1047.528 2981.355,1047.528 C2981.355,1047.528 3003.913,1052.997 2998.275,1067.524 C2992.636,1082.051 2975.818,1077.06 2975.818,1077.06 L2953.602,1071.31 L2949.836,1086.845 C2949.836,1086.845 2973.277,1093.059 2986.67,1091.814 C3000.062,1090.569 3014.886,1086.904 3017.347,1065.986 C3019.406,1048.488 3008.94,1041.842 3003.971,1038.829 C2999.001,1035.817 2966.775,1028.582 2968.748,1016.744 C2972.162,996.262 3008.32,1011.736 3008.32,1011.736" fill-opacity="0" stroke="#000000" stroke-width="1"/>
    </g>
    <g>
      <path class="bunnseil" d="M3779.492,1010.974 L3786.936,995.411 C3764.321,989.043 3750.261,989.043 3739.494,992.429 C3728.893,995.763 3715.587,1017.411 3727.804,1031.498 C3740.022,1045.585 3752.415,1046.879 3752.415,1046.879 C3752.415,1046.879 3774.972,1052.348 3769.334,1066.875 C3763.696,1081.402 3746.877,1076.411 3746.877,1076.411 L3724.662,1070.662 L3720.896,1086.196 C3720.896,1086.196 3744.337,1092.411 3757.729,1091.165 C3771.122,1089.92 3785.946,1086.256 3788.407,1065.337 C3790.465,1047.839 3780,1041.194 3775.03,1038.181 C3770.061,1035.168 3737.834,1027.933 3739.808,1016.095 C3743.221,995.613 3779.379,1011.087 3779.379,1011.087" fill="#000000"/>
      <path class="bunnseil" d="M3779.492,1010.974 L3786.936,995.411 C3764.321,989.043 3750.261,989.043 3739.494,992.429 C3728.893,995.763 3715.587,1017.411 3727.804,1031.498 C3740.022,1045.585 3752.415,1046.879 3752.415,1046.879 C3752.415,1046.879 3774.972,1052.348 3769.334,1066.875 C3763.696,1081.402 3746.877,1076.411 3746.877,1076.411 L3724.662,1070.662 L3720.896,1086.196 C3720.896,1086.196 3744.337,1092.411 3757.729,1091.165 C3771.122,1089.92 3785.946,1086.256 3788.407,1065.337 C3790.465,1047.839 3780,1041.194 3775.03,1038.181 C3770.061,1035.168 3737.834,1027.933 3739.808,1016.095 C3743.221,995.613 3779.379,1011.087 3779.379,1011.087" fill-opacity="0" stroke="#000000" stroke-width="1"/>
    </g>
    <g>
      <path class="bunnseil" d="M3161.833,992.236 L3178.917,992.198 L3178.786,1074.173 L3223.835,1074.016 L3223.678,1090.155 L3161.833,1090.155 L3161.833,992.236 z" fill="#000000"/>
      <path class="bunnseil" d="M3161.833,992.236 L3178.917,992.198 L3178.786,1074.173 L3223.835,1074.016 L3223.678,1090.155 L3161.833,1090.155 L3161.833,992.236 z" fill-opacity="0" stroke="#000000" stroke-width="1"/>
    </g>
    <g>
      <path  class="bunnseil" d="M3246.195,993.078 L3262.949,993.078 C3262.949,993.078 3263.371,1062.959 3263.371,1062.959 C3263.371,1062.959 3265.658,1075.717 3281.418,1075.834 C3297.179,1075.95 3301.651,1064.798 3301.651,1064.798 C3301.651,1064.798 3301.536,993.078 3301.536,993.078 L3317.286,993.078 L3317.286,1070.318 C3317.286,1070.318 3313.664,1092.578 3281.514,1092.655 C3249.365,1092.732 3246.422,1068.28 3246.422,1068.28 L3246.195,993.078 z" fill="#000000"/>
      <path class="bunnseil" d="M3246.195,993.078 L3262.949,993.078 C3262.949,993.078 3263.371,1062.959 3263.371,1062.959 C3263.371,1062.959 3265.658,1075.717 3281.418,1075.834 C3297.179,1075.95 3301.651,1064.798 3301.651,1064.798 C3301.651,1064.798 3301.536,993.078 3301.536,993.078 L3317.286,993.078 L3317.286,1070.318 C3317.286,1070.318 3313.664,1092.578 3281.514,1092.655 C3249.365,1092.732 3246.422,1068.28 3246.422,1068.28 L3246.195,993.078 z" fill-opacity="0" stroke="#000000" stroke-width="1"/>
    </g>
  </g>
</svg>
