<?xml version="1.0" encoding="UTF-8"?>
<!DOCTYPE svg PUBLIC "-//W3C//DTD SVG 1.1//EN" "http://www.w3.org/Graphics/SVG/1.1/DTD/svg11.dtd">
<svg version="1.1" xmlns="http://www.w3.org/2000/svg" xmlns:xlink="http://www.w3.org/1999/xlink" x="0" y="0" width="32" height="32" viewBox="0, 0, 32, 32">
  <g id="vektorer">
    <g>
      <path d="M30.731,11.261" fill="#BDA5A5"/>
      <path d="M30.731,11.261" fill-opacity="0" stroke="#CA6161" stroke-width="0.013"/>
    </g>
    <g>
      <path d="M32.616,17.253" fill="#BDA5A5"/>
      <path d="M32.616,17.253" fill-opacity="0" stroke="#CA6161" stroke-width="0.013"/>
    </g>
    <g>
      <path d="M9.504,5.387 C9.504,5.387 11.334,4.678 13.419,3.197 C16.579,0.953 17.145,0.077 17.145,0.077 C17.145,0.077 17.948,0.783 18.885,2.011 C19.767,3.166 20.207,3.908 20.207,3.908 C20.207,3.908 18.255,6.733 16.109,8.773 C13.963,10.813 12.085,11.754 12.085,11.754 C12.085,11.754 11.805,10.304 11.122,8.441 C10.439,6.577 9.504,5.387 9.504,5.387 z" fill="#85AFCC"/>
      <g>
        <path d="M9.504,5.387 C9.504,5.387 11.334,4.678 13.419,3.197 C16.579,0.953 17.145,0.077 17.145,0.077 C17.145,0.077 17.948,0.783 18.885,2.011 C19.767,3.166 20.207,3.908 20.207,3.908 C20.207,3.908 18.255,6.733 16.109,8.773 C13.963,10.813 12.085,11.754 12.085,11.754 C12.085,11.754 11.805,10.304 11.122,8.441 C10.439,6.577 9.504,5.387 9.504,5.387 z" fill="#85AFCC"/>
        <path d="M9.504,5.387 C9.504,5.387 11.334,4.678 13.419,3.197 C16.579,0.953 17.145,0.077 17.145,0.077 C17.145,0.077 17.948,0.783 18.885,2.011 C19.767,3.166 20.207,3.908 20.207,3.908 C20.207,3.908 18.255,6.733 16.109,8.773 C13.963,10.813 12.085,11.754 12.085,11.754 C12.085,11.754 11.805,10.304 11.122,8.441 C10.439,6.577 9.504,5.387 9.504,5.387 z" fill-opacity="0" stroke="#FFFFFF" stroke-width="0.027"/>
      </g>
    </g>
    <g>
      <path d="M12.219,12.304 C12.219,12.304 14.905,10.741 17.164,8.621 C19.339,6.58 20.589,4.473 20.589,4.473 C20.589,4.473 20.656,4.474 21.163,5.509 C21.669,6.544 22.121,7.961 22.121,7.961 C22.121,7.961 21.088,11.348 18.665,14.402 C16.203,17.505 12.15,20.086 12.15,20.086 C12.15,20.086 12.618,17.733 12.605,15.632 C12.589,13.203 12.219,12.304 12.219,12.304 z" fill="#69B658"/>
      <g>
        <path d="M12.219,12.304 C12.219,12.304 14.905,10.741 17.164,8.621 C19.339,6.58 20.589,4.473 20.589,4.473 C20.589,4.473 20.656,4.474 21.163,5.509 C21.669,6.544 22.121,7.961 22.121,7.961 C22.121,7.961 21.088,11.348 18.665,14.402 C16.203,17.505 12.15,20.086 12.15,20.086 C12.15,20.086 12.618,17.733 12.605,15.632 C12.589,13.203 12.219,12.304 12.219,12.304 z" fill="#69B658"/>
        <path d="M12.219,12.304 C12.219,12.304 14.905,10.741 17.164,8.621 C19.339,6.58 20.589,4.473 20.589,4.473 C20.589,4.473 20.656,4.474 21.163,5.509 C21.669,6.544 22.121,7.961 22.121,7.961 C22.121,7.961 21.088,11.348 18.665,14.402 C16.203,17.505 12.15,20.086 12.15,20.086 C12.15,20.086 12.618,17.733 12.605,15.632 C12.589,13.203 12.219,12.304 12.219,12.304 z" fill-opacity="0" stroke="#FFFFFF" stroke-width="0.027"/>
      </g>
    </g>
    <g>
      <path d="M11.883,21.01 C11.883,21.01 14.206,19.745 17.747,16.387 C21.287,13.03 22.361,9.324 22.361,9.324 C22.361,9.324 23.795,16.835 19.151,22.371 C17.598,24.222 16.572,25.449 13.66,27.604 C9.462,30.71 5.157,31.806 5.157,31.806 C5.157,31.806 8.254,29.141 9.658,26.529 C11.838,22.473 11.883,21.01 11.883,21.01 z" fill="#003D7A"/>
      <g>
        <path d="M11.883,21.01 C11.883,21.01 14.206,19.745 17.747,16.387 C21.287,13.03 22.361,9.324 22.361,9.324 C22.361,9.324 23.795,16.835 19.151,22.371 C17.598,24.222 16.572,25.449 13.66,27.604 C9.462,30.71 5.157,31.806 5.157,31.806 C5.157,31.806 8.254,29.141 9.658,26.529 C11.838,22.473 11.883,21.01 11.883,21.01 z" fill="#003D7A"/>
        <path d="M11.883,21.01 C11.883,21.01 14.206,19.745 17.747,16.387 C21.287,13.03 22.361,9.324 22.361,9.324 C22.361,9.324 23.795,16.835 19.151,22.371 C17.598,24.222 16.572,25.449 13.66,27.604 C9.462,30.71 5.157,31.806 5.157,31.806 C5.157,31.806 8.254,29.141 9.658,26.529 C11.838,22.473 11.883,21.01 11.883,21.01 z" fill-opacity="0" stroke="#FFFFFF" stroke-width="0.027"/>
      </g>
    </g>
  </g>
</svg>
